<?xml version="1.0" encoding="UTF-8"?>
<!DOCTYPE svg PUBLIC "-//W3C//DTD SVG 1.1//EN" "http://www.w3.org/Graphics/SVG/1.1/DTD/svg11.dtd">
<!-- Creator: CorelDRAW 2020 (64 Bit Versão de avaliação) -->
<svg xmlns="http://www.w3.org/2000/svg" xml:space="preserve" width="163.068mm" height="279.897mm" version="1.1" style="shape-rendering:geometricPrecision; text-rendering:geometricPrecision; image-rendering:optimizeQuality; fill-rule:evenodd; clip-rule:evenodd"
viewBox="0 0 16306.8 27989.7"
 xmlns:xlink="http://www.w3.org/1999/xlink"
 xmlns:xodm="http://www.corel.com/coreldraw/odm/2003">
 <defs>
  <style type="text/css">
   <![CDATA[
    .fil0 {fill:#003256}
    .fil1 {fill:#004468}
    .fil4 {fill:#2D907A}
    .fil2 {fill:#AFCB3F}
    .fil3 {fill:white}
   ]]>
  </style>
 </defs>
 <g id="Camada_x0020_1">
  <metadata id="CorelCorpID_0Corel-Layer"/>
  <g id="_2403707495440">
   <path class="fil0" d="M3845.78 12558.13c13.42,22.39 60.79,71.34 82.43,92.43 172.73,168.27 405.11,468.04 536.92,656.56 592.05,846.79 998.59,2027.26 971.55,3128.75l-3.73 2737.21c54.7,0.32 15.77,-1.99 30.79,12.64l0 2726.27 2487.1 4.26 406.4 0.19c68.81,-14.03 2452.63,-4.45 2514.6,-4.45 -7.08,-10.57 -7.46,-13.64 -18.84,-23.71 -19.84,-17.57 -7.46,-9.22 -23.49,-12.77 -60.84,-14.98 -244.15,-10.81 -321.92,-15.26 -295.3,-16.92 -602.91,-60.47 -886.91,-127.15 -673.6,-158.16 -1103.19,-360.48 -1658.72,-695.8 -191.39,-115.53 -412.38,-288.81 -585.74,-430.3l-90.19 -78.95c-108.82,-110.52 -211.4,-180.93 -341.47,-327.58l-162.08 -176.4c-24.05,-30.92 -51.15,-62.99 -77.22,-92.38 -25.86,-29.15 -50.34,-62.3 -75.82,-93.51 -24.51,-30.02 -48.77,-61.27 -74.49,-94.74 -229.59,-298.78 -472.38,-695.59 -630.49,-1063.19 -290.12,-674.52 -481.37,-1401.29 -475.99,-2227.3 2.28,-1.34 5.81,-5.4 7.28,-3.18l132.89 -7.26 5283.2 0c0,671.09 138.69,1375.66 388.16,1990.99 34.16,84.25 69.76,159.13 105.34,241.79 168.4,391.2 338.98,631.55 566.51,965.95l464 552.01c26.02,34.11 56.6,58.36 84.66,89.91 52.87,-34.26 181.37,-179.48 236.38,-234.52l1672.62 -1680.2c161.38,-161.48 312.77,-321.01 474.24,-482.48 80.93,-80.94 155.61,-156.62 235.74,-238.45 21.15,-21.6 36.82,-39.26 58.84,-59.65 157.46,-145.85 1125.15,-1125.45 1132.7,-1142.92 -12.28,-21.19 -129.56,-7.85 -161.38,-7.85l-4580.47 0c-212.61,0 -471.61,13.24 -678.46,-1.65 -68.33,-58.43 -137.74,-137.93 -203.09,-203.58l-406.73 -406.07c-145.83,-146.49 -951.63,-981.2 -1010.1,-1011.09 -22.37,-2.81 -25.76,10.79 -44.36,29.89 -110.51,113.46 -379.4,336.46 -500.32,431.33 -295.8,232.07 -683.09,465.76 -1046.65,629.55 -304.91,137.36 -656.19,262.72 -1006.7,339.61 -303.75,66.64 -574.03,109.1 -886.41,126.95 -105.24,6.02 -229.43,1.57 -330.08,13.79 0,-19.2 -1.32,-43.58 -0.07,-62.18l15.03 -58.88c42.99,-1352.07 496.91,-2483.4 1330.96,-3454.39l233.21 -256.92c-55.78,-43.86 -137.68,-140.87 -193.86,-197.13l-1377 -1391.14 -5.79 0.97c-35.15,13.37 -79.61,69.79 -106.82,97.32l-491.37 499.36c-34.15,36 -69.45,62.58 -104.8,98.28 -81.95,82.74 -850.56,873.02 -889.99,897.02z"/>
   <path class="fil1" d="M7950.84 21916.25l-287.92 38.02c-91.37,15.04 -178.98,39.39 -266.08,64.12 -468.86,133.1 -883.45,399.06 -1217.82,746.45l-287.3 364.63c-278.25,415.73 -466.81,978.45 -455.01,1517.26l-0.09 33.87c-6.44,369.06 81.92,717.83 218.53,1051.08 123.55,301.39 245.28,460.2 436.59,706.42 98.03,126.18 323.62,327.47 460.78,428.21 106.16,77.98 196.89,134.95 311.77,196.24l175.07 87.4c278.57,134.82 711.29,241.19 1029.99,240.01l2801.86 -0.03 -1.34 -2937.94c-3.65,-7.5 -29.42,-239.84 -35.41,-275.88 -38.82,-233.58 -128.44,-514.11 -230.72,-717.55 -184.97,-367.92 -316.24,-531.88 -597.54,-816.39 -58.96,-59.64 -193.6,-163.43 -260.42,-213.72 -221.13,-166.42 -576.14,-346.85 -853.35,-416.65 -81.26,-20.46 -161.29,-43.39 -254.57,-58.7l-280.62 -36.66 -406.4 -0.19z"/>
   <path class="fil2" d="M10870.23 5842.23c12.05,15.95 26.3,263.96 27.31,279.11 5.73,86.38 22.64,189.49 37.19,276.07 30.92,183.96 62.23,353.4 106.38,520.15 88.05,332.49 223.42,720.25 378.18,1027.29l164.19 309.95c18.18,31.56 35.88,62.35 56.15,96.25 21.65,36.19 41.9,66.5 61.55,99.32 63.01,105.25 240.45,362.29 320.17,458.76 94.51,114.35 183.46,233.29 287.88,338.66l76.02 84.84c162.26,161.31 262.54,262.87 436.46,410.21 219.17,185.67 545.6,415 787.48,550.25 628.11,351.24 1145.21,533.67 1852.82,653.32 76.94,13 198.08,35.05 278.17,35.11 179.39,9.03 387.54,39.35 567.27,24.51l0 -5470.62c-448.49,-8.51 -905.26,-0.46 -1354.67,-0.46 -448.73,0 -897.47,0 -1346.2,0 -282.33,0 -2634.14,15.97 -2688.64,-5.97 -1.84,1.14 -4.71,5.27 -20.53,8.94 -6.39,1.48 -22.21,0.86 -28.76,0.86l0.12 15.58 1.46 287.87z"/>
   <path class="fil3" d="M10862.76 5478.16l55.18 50.82c54.5,21.94 2406.31,5.97 2688.64,5.97 448.73,0 897.47,0 1346.2,0 449.41,0 906.18,-8.05 1354.67,0.46l0 -1120.38c-680.89,5.09 -1268.92,-154.76 -1805.84,-390.56 -456.37,-200.44 -946.76,-547.85 -1291.9,-901.08 -667.64,-683.3 -1273.24,-1718.39 -1279.25,-3119.43l-3314.96 1.2c19.16,114.83 9.8,332.69 18.03,462.82 27.24,430.54 82.17,854.13 178.91,1269.59 279.42,1200.07 820.55,2315.62 1593.51,3232.66 17.3,20.52 36.65,42.45 54.11,64.4l402.7 443.53z"/>
   <path class="fil1" d="M10871.86 16146.18l-1.14 289.26c206.85,14.89 465.85,1.65 678.46,1.65l4580.47 0c31.82,0 149.1,-13.34 161.38,7.85l16.42 -1.29 0 -5437.62c-179.73,14.84 -387.88,-15.48 -567.27,-24.51l-132.97 19.41c-231.73,30.43 -435.19,72.09 -659.56,127.85 -251.74,62.56 -627.97,194.19 -864.15,304.25l-366.96 183.37c-210.61,109.05 -561.27,344.08 -754.6,498.47 -30.65,24.49 -58.64,45.56 -89.35,71.52 -59.22,50.05 -109.99,94.11 -169.45,143.81 -79.1,66.13 -243.54,234.74 -317.89,308.65l-148.24 165.03c-14.01,15.77 -23.96,22.57 -37.16,39.04 -399.23,498.42 -513.94,649.2 -828.6,1288.07 -107.35,217.95 -181.33,448.92 -259.07,680.73 -94.61,282.11 -181.78,735.65 -213.51,1039.55 -5.51,52.78 -5.34,95.53 -12.26,148.61 -9.17,70.31 -2.51,73.84 -5.79,112.74 -1.55,18.33 1.35,-1.34 -1.99,14.95 -3.75,18.27 -0.31,8.41 -6.77,18.61z"/>
   <path class="fil3" d="M0.63 16433.35l5436.05 2.52c27.04,-1101.49 -379.5,-2281.96 -971.55,-3128.75 -131.81,-188.52 -364.19,-488.29 -536.92,-656.56 -21.64,-21.09 -69.01,-70.04 -82.43,-92.43 -50.7,-34.24 -186.02,-184.58 -269.29,-250.19 -29.18,-22.99 -66.49,-55.02 -91.78,-77.72 -350.8,-314.95 -824.44,-585.71 -1250.36,-790.07 -564.13,-270.67 -1510.61,-508.67 -2233.72,-480.14l0 5473.34z"/>
   <path class="fil0" d="M5444.94 373.42l16.76 363.07 29.06 365.51 39.73 337.6c1.72,2.45 2.75,5.74 3.51,8.28l10.12 95.14c4.96,33.67 9.75,64.14 14.58,97.4 8.03,55.21 26.54,140.81 27.13,193.13l69.13 363.82c28.98,117.44 45.24,258.17 86.03,369.7 -4.65,33.53 68.18,300.52 84.62,345.73l110.94 380.92 119.95 363.94 134.17 365.37c29.3,67.89 119.66,319.01 154.33,361.64l123.11 282.04c8.82,17.13 13.76,28.41 21.95,45.07 4.4,8.94 7.18,13.98 11.81,21.77l10.59 16.78c0.6,-1.36 2.59,3.81 3.77,5.79 4.79,53.09 58.17,130.5 84.71,183.44 28.28,56.39 54.2,119.78 85.76,170.09l30.2 53.09c8.77,17.03 14.4,29.6 22.43,45.62 36.48,72.77 135.67,232.79 151.77,278.27 133.62,212.92 227.27,385.39 379.01,612.99 189.86,284.78 557.43,786.63 805.75,1065.39l296.2 330.34c52.71,52.46 197.91,225.14 247.65,249.55l563.64 -560.09c188.96,-190.09 369.97,-376.85 558.28,-567.79 94.57,-95.89 183.25,-185.08 277.86,-281l142.66 -136.52c47.9,-51.23 93.28,-95 142.13,-145.81 65.63,-68.26 546.04,-544.85 558.48,-575.53l-402.7 -443.53c-17.46,-21.95 -36.81,-43.88 -54.11,-64.4 -772.96,-917.04 -1314.09,-2032.59 -1593.51,-3232.66 -96.74,-415.46 -151.67,-839.05 -178.91,-1269.59 -8.23,-130.13 1.13,-347.99 -18.03,-462.82l-4.22 -4.94 -3166.62 0c-16.61,62.48 -3.87,296.76 0.28,373.2z"/>
   <path class="fil2" d="M0.63 10960.01c723.11,-28.53 1669.59,209.47 2233.72,480.14 425.92,204.36 899.56,475.12 1250.36,790.07 25.29,22.7 62.6,54.73 91.78,77.72 83.27,65.61 218.59,215.95 269.29,250.19 39.43,-24 808.04,-814.28 889.99,-897.02 35.35,-35.7 70.65,-62.28 104.8,-98.28l491.37 -499.36c27.21,-27.53 71.67,-83.95 106.82,-97.32l0 -10.04 -1863.08 -1873.26c-60.76,-60.76 -108.65,-117.12 -169.33,-177.8l-2077.71 -2087.89c-79.69,-99.89 -914.85,-922.08 -1059.32,-1065.82 -20.16,-20.06 -22.27,-25.08 -38.83,-45.84 -40.48,-50.75 -181.32,-166.41 -212.93,-220.88l-16.93 -4.25 0 5479.64z"/>
   <path class="fil1" d="M16307.45 4415.03l0 -4414.81 -7696.17 0 4.22 4.94 3314.96 -1.2c6.01,1401.04 611.61,2436.13 1279.25,3119.43 345.14,353.23 835.53,700.64 1291.9,901.08 536.92,235.8 1124.95,395.65 1805.84,390.56z"/>
   <polygon class="fil2" points="0.63,19176.43 2721.32,19173.81 2721.32,21911.99 2744.45,21911.99 2744.45,19174.91 5432.95,19173.08 5436.68,16435.87 0.63,16433.35 "/>
   <path class="fil4" d="M8619.71 7744.9c-24.64,43.38 -152.48,159.04 -196.85,203.42 -209.15,209.14 -508.54,492.25 -690.1,698.43l-2095.48 2104c-23.06,22.79 -27.85,29.74 -47.38,54.22l-151.14 151.14 0 10.04 5.79 -0.97c119.9,-22.07 4532.58,13.22 5300.34,-7.27 75.61,-2.02 60.84,-2.36 77.47,13.52l6.46 -5.17 43.02 -5.89 -1.61 -5118.14 -1.46 -287.87 -0.12 -15.58c6.55,0 22.37,0.62 28.76,-0.86 15.82,-3.67 18.69,-7.8 20.53,-8.94l-55.18 -50.82c-12.44,30.68 -492.85,507.27 -558.48,575.53 -48.85,50.81 -94.23,94.58 -142.13,145.81l-142.66 136.52c-94.61,95.92 -183.29,185.11 -277.86,281 -188.31,190.94 -369.32,377.7 -558.28,567.79l-563.64 560.09z"/>
   <path class="fil4" d="M12480.51 20283.16c-7.45,13.47 -8.2,16.06 -16.93,28.63 22.67,33.85 53.33,57.4 85.93,83.4l174.27 164.4c103.91,100.93 447.17,356.44 574.61,441.39 95.49,63.67 268.22,173.89 367.5,225.16l163.54 90.46c785.37,392.42 1560.26,595.39 2478.02,595.39l0 -5468.34 -16.42 1.29c-7.55,17.47 -975.24,997.07 -1132.7,1142.92 -22.02,20.39 -37.69,38.05 -58.84,59.65 -80.13,81.83 -154.81,157.51 -235.74,238.45 -161.47,161.47 -312.86,321 -474.24,482.48l-1672.62 1680.2c-55.01,55.04 -183.51,200.26 -236.38,234.52z"/>
   <path class="fil2" d="M5444.55 10965.18l1377 1391.14c56.18,56.26 138.08,153.27 193.86,197.13l-233.21 256.92c-834.05,970.99 -1287.97,2102.32 -1330.96,3454.39l0.85 107.74c48.91,-35.99 121.06,-120.16 169.19,-168.26 29.62,-29.6 53.4,-57.49 84.19,-85.16 37.19,-33.42 55.65,-48.16 87.65,-81.57 112.12,-117.05 222.05,-225.87 335.59,-341.88l1848.55 -1859.85c57.45,-57.41 106.24,-109.5 164.94,-165.34 114.31,-108.74 224.3,-227.4 336.13,-341.1l1843.91 -1856.04c61.7,-62.03 469.81,-484.71 500.12,-501.87 -16.63,-15.88 -1.86,-15.54 -77.47,-13.52 -767.76,20.49 -5180.44,-14.8 -5300.34,7.27z"/>
   <path class="fil4" d="M10869.87 24451.99l1.34 2937.94 5436.24 0 -315.38 -319.61c-157.8,-157.8 -322.7,-311.08 -469.97,-478.31l-484.65 -480.52 -2898.9 -0.25 0.48 -2914.89 0.49 -5.89c-15.86,-32.28 -735.79,-743.7 -867.7,-874.11 -30.59,-30.25 -44.93,-53.98 -76.09,-84.78 -56.01,-55.36 -105.23,-105.16 -160.9,-160.83 -41.13,-41.13 -121.93,-131.26 -162.99,-158.75l-1.97 2540z"/>
   <path class="fil1" d="M10829.51 21875.51l0 -13.4c-38.84,-23.63 -631.61,-631.79 -677.15,-678.5l-671.23 -674.91c-443.87,-453.57 -897.73,-898.72 -1340.65,-1351.81l-1515.46 -1524.04c-58.24,-58.32 -109.5,-112.3 -167.27,-171.34l-669.49 -676.85c-29.49,-30.66 -53.76,-55.04 -83.66,-85.6 -28.55,-29.18 -59.15,-52.01 -88.1,-81.21 -40.83,-41.2 -125.32,-141.37 -168.03,-164.9 -5.38,826.01 185.87,1552.78 475.99,2227.3 158.11,367.6 400.9,764.41 630.49,1063.19 25.72,33.47 49.98,64.72 74.49,94.74 25.48,31.21 49.96,64.36 75.82,93.51 26.07,29.39 53.17,61.46 77.22,92.38l162.08 176.4c130.07,146.65 232.65,217.06 341.47,327.58l90.19 78.95c173.36,141.49 394.35,314.77 585.74,430.3 555.53,335.32 985.12,537.64 1658.72,695.8 284,66.68 591.61,110.23 886.91,127.15 77.77,4.45 261.08,0.28 321.92,15.26z"/>
   <path class="fil2" d="M10829.51 21862.11c0,-656.1 -127.81,-1374.01 -362.84,-1957.95 -33.52,-83.28 -64.72,-156.67 -99.19,-239.48 -138.2,-331.95 -401.29,-770.33 -610.77,-1048.7 -26.48,-35.18 -47.51,-60.32 -73.91,-95.42 -56.19,-74.71 -236.2,-290.62 -307.43,-361.43l-376.68 -368.39c-203.59,-189.41 -570.74,-451.51 -822.82,-599.58 -37.76,-22.19 -64.46,-37.29 -101.57,-59.3 -361,-214.13 -907.95,-424.48 -1312.13,-525.14 -247.62,-61.67 -446.42,-95.91 -701.85,-127.88 -54.05,-6.77 -100.76,-6.63 -154.82,-14.52 -32,-4.68 -45.71,-3.89 -79.96,-4.71 -57.4,-1.37 -53.66,-9.68 -160.87,-8.46 -27.38,0.31 -56.51,3.75 -76.03,-8.64l-132.89 7.26c-1.47,-2.22 -5,1.84 -7.28,3.18 42.71,23.53 127.2,123.7 168.03,164.9 28.95,29.2 59.55,52.03 88.1,81.21 29.9,30.56 54.17,54.94 83.66,85.6l669.49 676.85c57.77,59.04 109.03,113.02 167.27,171.34l1515.46 1524.04c442.92,453.09 896.78,898.24 1340.65,1351.81l671.23 674.91c45.54,46.71 638.31,654.87 677.15,678.5z"/>
   <path class="fil1" d="M5451.24 16264.76l-15.03 58.88c-1.25,18.6 0.07,42.98 0.07,62.18 100.65,-12.22 224.84,-7.77 330.08,-13.79 312.38,-17.85 582.66,-60.31 886.41,-126.95 350.51,-76.89 701.79,-202.25 1006.7,-339.61 363.56,-163.79 750.85,-397.48 1046.65,-629.55 120.92,-94.87 389.81,-317.87 500.32,-431.33 18.6,-19.1 21.99,-32.7 44.36,-29.89 1.52,-45.12 28.1,-40.84 80.44,-98.9 216.59,-240.25 332.51,-372.96 531,-654.56 186.27,-264.25 340.68,-546.59 489.36,-865.35 280.26,-600.85 486.81,-1445.22 477.22,-2229.63l-6.46 5.17c-30.31,17.16 -438.42,439.84 -500.12,501.87l-1843.91 1856.04c-111.83,113.7 -221.82,232.36 -336.13,341.1 -58.7,55.84 -107.49,107.93 -164.94,165.34l-1848.55 1859.85c-113.54,116.01 -223.47,224.83 -335.59,341.88 -32,33.41 -50.46,48.15 -87.65,81.57 -30.79,27.67 -54.57,55.56 -84.19,85.16 -48.13,48.1 -120.28,132.27 -169.19,168.26l-0.85 -107.74z"/>
   <path class="fil1" d="M2744.45 21911.99c1.74,1.15 4.71,0.22 5.7,2.58l27.21 6.21c103.13,8.75 1215.8,-0.32 1321.14,-0.32l1278.53 0.08c44.28,0.39 59.94,6.12 86.71,-8.55l0 -2726.27c-15.02,-14.63 23.91,-12.32 -30.79,-12.64l-2688.5 1.83 0 2737.08z"/>
   <path class="fil3" d="M2721.32 21911.99l0 -2738.18 -2720.69 2.62 0 2591.64c0.96,86.31 2.24,137.3 3.9,140.02 15.02,24.55 282.67,12.37 326.3,12.37 761.35,0 1544.35,-6.63 2302.99,0.08 44.38,0.39 59.54,6.03 87.5,-8.55z"/>
   <path class="fil1" d="M2718.34 24680.6l0.93 -33.87c-40.05,-3.2 -48.76,-26.76 -96.09,-74.08 -204.37,-204.39 -499.39,-484.18 -673.16,-681.51 -85.86,-97.49 -489.73,-489.86 -592.61,-592.73l-423.35 -423.32c-32.47,-32.18 -48.77,-57.78 -80.34,-88.99 -58.77,-58.11 -110.92,-110.77 -169.41,-169.26l-508 -508c-43.63,-43.63 -132.42,-142.48 -175.68,-171.45l0 5452.54c39.27,-26.3 687.82,-683.73 764.24,-759.76l926.98 -935.69c115.41,-115.41 219.15,-227.62 334.43,-342.9l634.86 -635.14c21.67,-22.57 22.37,-32.93 57.2,-35.84z"/>
   <path class="fil4" d="M2719.27 24646.73l-0.93 33.87 0.09 2709.33c36.72,-24.58 442.09,-437.85 510.12,-505.88l1261.43 -1278.58c142.19,-153.73 438.43,-438.22 592.77,-592.56l296.19 -296.47c21.97,-22.91 22.25,-32.95 57.68,-35.84l0.09 -33.87c-39.53,-3.21 -49.13,-27.49 -95.72,-74.08l-1773.77 -1782.24c-59.23,-59.23 -105.69,-114.16 -165.1,-173.57 -51.15,-51.14 -644.12,-652.95 -683.69,-679.45l0.84 2709.34z"/>
   <path class="fil1" d="M15037.45 26111.49l0 -6.62c-27.58,-16.15 -317.72,-315.8 -365.41,-364.65 -710.18,-727.49 -1459.6,-1455.95 -2167.35,-2184.55 -27.64,-28.46 -326.73,-340.85 -365.66,-359.32l-0.48 2914.89 2898.9 0.25z"/>
   <path class="fil0" d="M15037.45 26104.87l0 -2914.41 67.73 0 -2965.66 0 -0.49 5.89c38.93,18.47 338.02,330.86 365.66,359.32 707.75,728.6 1457.17,1457.06 2167.35,2184.55 47.69,48.85 337.83,348.5 365.41,364.65z"/>
   <path class="fil2" d="M8025.23 23533.15c-351.79,53.28 -558.58,200.91 -725.27,394.8 -163.43,190.11 -287.73,499.1 -253.95,844.37 55.42,566.55 584.65,1079.6 1238.5,996.32 567.74,-72.32 1058.72,-579.55 981.33,-1243.51 -18.72,-160.58 -66.78,-304.58 -134.18,-424.31 -61.02,-108.38 -166.98,-242.93 -251.15,-307.53 -106.16,-81.47 -201.49,-153.66 -353.96,-204.9 -145.83,-49.01 -330.52,-81.1 -501.32,-55.24z"/>
   <path class="fil1" d="M4344.04 7611.77c0,309.36 43.67,471.92 204.78,709.61 35.36,52.16 79.13,103.31 123.25,147.68 95.6,96.16 196.14,159.32 315.31,218.1 509.85,251.52 1175.77,34.83 1456.39,-525.06 213.92,-426.8 118.11,-950.31 -222.17,-1293.36 -53.67,-54.11 -157.83,-131.04 -226.84,-171.1 -362.01,-210.17 -814.46,-185.69 -1157.99,43.72 -28.6,19.11 -53.15,35.05 -79.18,56.29l-136.69 134.25c-154.48,182.63 -276.86,421.87 -276.86,679.87z"/>
   <path class="fil2" d="M9250.8 14814.7c58.47,29.89 864.27,864.6 1010.1,1011.09l406.73 406.07c65.35,65.65 134.76,145.15 203.09,203.58l1.14 -289.26 -0.02 -5185.81 -43.02 5.89c9.59,784.41 -196.96,1628.78 -477.22,2229.63 -148.68,318.76 -303.09,601.1 -489.36,865.35 -198.49,281.6 -314.41,414.31 -531,654.56 -52.34,58.06 -78.92,53.78 -80.44,98.9z"/>
   <path class="fil1" d="M0.63 5121.59l0 358.78 16.93 4.25 6873.54 2.01c-16.1,-45.48 -115.29,-205.5 -151.77,-278.27 -8.03,-16.02 -13.66,-28.59 -22.43,-45.62l-30.2 -53.09c-20.77,18.15 -71.47,9.92 -98.97,9.81 -1914.68,-7.73 -3841.37,0.69 -5757.37,0.69 -264.26,0 -570.66,-14.3 -829.73,1.44z"/>
   <path class="fil3" d="M0.63 5121.59c259.07,-15.74 565.47,-1.44 829.73,-1.44 1916,0 3842.69,-8.42 5757.37,-0.69 27.5,0.11 78.2,8.34 98.97,-9.81 -31.56,-50.31 -57.48,-113.7 -85.76,-170.09 -26.54,-52.94 -79.92,-130.35 -84.71,-183.44l-6515.6 -3.64 0 369.11z"/>
   <path class="fil1" d="M0.63 4752.48l6515.6 3.64c-1.18,-1.98 -3.17,-7.15 -3.77,-5.79l-10.59 -16.78c-4.63,-7.79 -7.41,-12.83 -11.81,-21.77 -8.19,-16.66 -13.13,-27.94 -21.95,-45.07l-123.11 -282.04 -6344.37 5.17 0 362.64z"/>
   <path class="fil3" d="M0.63 4389.84l6344.37 -5.17c-34.67,-42.63 -125.03,-293.75 -154.33,-361.64l-6190.04 -1.93 0 368.74z"/>
   <polygon class="fil1" points="0.63,4021.1 6190.67,4023.03 6056.5,3657.66 0.63,3659.27 "/>
   <polygon class="fil3" points="0.63,3659.27 6056.5,3657.66 5936.55,3293.72 0.63,3291.31 "/>
   <path class="fil1" d="M0.63 2930.2l0 361.11 5935.92 2.41 -110.94 -380.92c-12.66,18.36 20.14,18.03 -84.49,16.28 -30.98,-0.52 -62.21,-0.16 -93.22,-0.16l-4919.14 0.15c-236.15,0 -494.75,-9.99 -728.13,1.13z"/>
   <path class="fil3" d="M0.63 2930.2c233.38,-11.12 491.98,-1.13 728.13,-1.13l4919.14 -0.15c31.01,0 62.24,-0.36 93.22,0.16 104.63,1.75 71.83,2.08 84.49,-16.28 -16.44,-45.21 -89.27,-312.2 -84.62,-345.73l-5740.36 -5.69 0 368.82z"/>
   <path class="fil1" d="M0.63 2561.38l5740.36 5.69c-40.79,-111.53 -57.05,-252.26 -86.03,-369.7l-5654.33 3.22 0 360.79z"/>
   <polygon class="fil3" points="0.63,2200.59 5654.96,2197.37 5585.83,1833.55 0.63,1829.88 "/>
   <path class="fil3" d="M0.63 1468.83c221.41,-9.58 462.26,-1.03 685.8,-1.03 1499.48,0 3015.55,8.04 4512.74,0.03l297.47 0.39c55.97,-8.81 27.44,13.57 33.85,-28.62l-39.73 -337.6 -5490.13 -1.91 0 368.74z"/>
   <path class="fil1" d="M0.63 370.3l5444.31 3.12c-4.15,-76.44 -16.89,-310.72 -0.28,-373.2l-5444.03 0 0 370.08z"/>
   <path class="fil1" d="M0.63 1468.83l0 361.05 5585.2 3.67c-0.59,-52.32 -19.1,-137.92 -27.13,-193.13 -4.83,-33.26 -9.62,-63.73 -14.58,-97.4l-10.12 -95.14c-0.76,-2.54 -1.79,-5.83 -3.51,-8.28 -6.41,42.19 22.12,19.81 -33.85,28.62l-297.47 -0.39c-1497.19,8.01 -3013.26,-0.03 -4512.74,-0.03 -223.54,0 -464.39,-8.55 -685.8,1.03z"/>
   <polygon class="fil3" points="0.63,738.27 5461.7,736.49 5444.94,373.42 0.63,370.3 "/>
   <polygon class="fil1" points="0.63,1100.09 5490.76,1102 5461.7,736.49 0.63,738.27 "/>
  </g>
 </g>
</svg>
