<?xml version="1.0" encoding="UTF-8"?>
<!DOCTYPE svg PUBLIC "-//W3C//DTD SVG 1.1//EN" "http://www.w3.org/Graphics/SVG/1.1/DTD/svg11.dtd">
<!-- Creator: CorelDRAW 2020 (64 Bit Versão de avaliação) -->
<svg xmlns="http://www.w3.org/2000/svg" xml:space="preserve" width="541mm" height="141mm" version="1.1" style="shape-rendering:geometricPrecision; text-rendering:geometricPrecision; image-rendering:optimizeQuality; fill-rule:evenodd; clip-rule:evenodd"
viewBox="0 0 54100 14100"
 xmlns:xlink="http://www.w3.org/1999/xlink"
 xmlns:xodm="http://www.corel.com/coreldraw/odm/2003">
 <defs>
  <style type="text/css">
   <![CDATA[
    .fil0 {fill:#FCFDFD}
   ]]>
  </style>
 </defs>
 <g id="Camada_x0020_1">
  <metadata id="CorelCorpID_0Corel-Layer"/>
  <g id="_2788915474592">
   <path class="fil0" d="M7038.68 2827.91c0,-317.62 337.27,-414.89 622.3,-414.89 407.78,0 2392.82,-47.09 2647.62,49 255.34,96.34 687.76,910.47 862.1,1170.76 238,355.45 1593.14,2354.84 1593.14,2514.04 0,203.99 -163.51,390.78 -257.2,531.07l-1924.67 2929.26c-132.99,205.02 -192.28,314.98 -514.75,314.98l-2530.7 0c-302.28,0 -497.84,-198.21 -497.84,-414.89 0,-259.84 2115.82,-3065.04 2115.82,-3318.91 0,-210.46 -1093.97,-1743.72 -1319.28,-2082.65 -167.77,-252.3 -796.54,-1076.09 -796.54,-1277.77zm-5974.08 -373.38l0 7135.67c0,410.18 55.42,697.22 200.51,1044.09 56.69,135.59 100.55,168.02 131.37,283.52 173.41,-46.31 731.52,-985.15 847.26,-1144.15l2023.11 -2955.24c503.47,-741.52 540.81,-491.57 -248.43,-1675.56 -223.83,-335.75 -427.87,-621.27 -655.43,-962.55l-656.6 -961.38c-333.15,-480.79 -144.4,-805.91 432.53,-805.91l2323.28 0c304.2,0 423.9,45.67 549.34,238.88l645.58 972.4c118.43,176.6 202.07,325.22 323.4,506.32 177.03,264.35 1261.26,1767.48 1261.26,2057.71 0,152.09 -61.01,199.48 -123.78,291.06l-888.56 1351.71c-131.32,196.1 -233.1,371.18 -356.72,556l-2861.95 4356.74c-331.82,506.66 -426.1,372.74 -1411.2,372.74 -608.43,0 -1216.91,0 -1825.39,0 -53.56,200.71 -207.42,237.56 -207.42,456.34 0,208.59 206.29,414.88 414.83,414.88l2862.58 0c260.05,0 362.36,-252.88 481.23,-431.49l1136.8 -1725.83c1783.9,0 3567.84,0 5351.78,0 1089.47,0 1566.83,61.79 2223.67,-431.44 522.29,-392.15 804.83,-993.28 804.83,-1891.8l0 -6886.8c0,-685.51 -106.28,-1271.7 -569.33,-1753.91 -382.45,-398.32 -904.69,-652.28 -1670.95,-652.28l-8297.32 0c-1363.13,0 -2240.28,877.14 -2240.28,2240.28z"/>
   <path class="fil0" d="M35249.65 7681.85c-1983.08,0 -1608.82,-2696.67 290.42,-2696.67 682.57,0 1286.06,454.67 1286.06,1037.18l0 207.42c0,818.59 -743.77,1452.07 -1576.48,1452.07zm-2945.59 -1120.14c0,1108.52 462.56,1923.34 1382.29,2351.51 578.3,269.2 1456.09,313.84 2034.92,28.47 444.63,-219.23 385.24,-370.89 607.02,-430.13 -31.51,135.24 -75.81,437.92 -124.46,539.35l1576.52 0c205.02,-880.04 383.97,-1806.29 563.6,-2713.87l556.54 -2720.92 -1576.52 0c-51.89,108.14 -124.46,414.25 -124.46,580.85 -244.66,-65.37 -362.95,-663.81 -1866.9,-663.81 -860.59,0 -1526.11,385.24 -2084.71,943.84 -555.86,555.86 -943.84,1207.21 -943.84,2084.71z"/>
   <path class="fil0" d="M23342.94 7681.85c-882,0 -1401.1,-581.98 -1281.3,-1445.31 124.85,-899.59 1244.55,-1527.38 2166.14,-1140.52 1324.92,556.15 701.29,2585.83 -884.84,2585.83zm-2945.54 -1078.69c0,703.4 206.05,1309.67 674.05,1773.65 544.93,540.23 1003.13,757.05 1856.66,757.05 708.15,0 1163.85,-284.49 1493.52,-663.8 0,265.14 -83.01,315.71 -83.01,580.85l1576.53 0c0,-213.5 78.69,-497.11 114.07,-674.19l964.57 -4760.6c-1675.8,0 -1574.28,-125.29 -1644.2,264.21 -27,150.57 -53.56,214.96 -56.74,358.09 -168.22,-123.24 -477.51,-705.26 -1659.48,-705.26 -1191.1,0 -2038.75,527.24 -2643.95,1338.78 -348.09,466.82 -592.02,1108.48 -592.02,1731.22z"/>
   <path class="fil0" d="M47820.11 7723.3c-2139.73,0 -1623.81,-2779.57 165.96,-2779.57 869.8,0 1327.56,520.67 1327.56,1369.06 0,730.68 -750.43,1410.51 -1493.52,1410.51zm-3028.54 -1078.64c0,2587.74 3437.3,3365.52 5071.94,1711.52 817.02,-826.67 1068.1,-1289.19 1068.1,-2499.78 0,-845.59 -541.84,-1508.86 -1036.79,-1867.24 -1494.4,-1082.07 -3892.22,-494.36 -4827.38,1437.85 -138.43,285.97 -275.87,815.51 -275.87,1217.65z"/>
   <path class="fil0" d="M38734.53 6603.16c0,1517.97 1293.94,2572.21 2821.08,2572.21 859.41,0 1371.95,-83.16 2088.08,-525.63l433.55 -354.66c40.53,-70.02 502.99,-2346.61 506.91,-2521.64l-2821.08 0c-4.26,189.58 -71.59,399.99 -106.96,598.34 -34.99,196.1 -96.63,432.77 -100.5,604.76l1535.02 0c-124.12,532.78 -43.95,549.29 -343.93,693.25 -658.37,316 -1431.49,290.57 -1997.54,-94.18 -1083.04,-736.17 -448.1,-2797.85 1387.29,-2797.85 855.25,0 1071.24,409.15 1327.56,580.8l507.44 -405.28c108.54,-89.72 420.62,-353.83 529.74,-382.93 -69.68,-260.93 -627.44,-646.85 -884.01,-775.48 -1997.92,-1001.56 -4882.65,486.77 -4882.65,2808.29z"/>
   <path class="fil0" d="M28653.27 5939.41c10.34,-124.17 51.64,-244.02 72.81,-342.07l217.56 -1110c598.93,0 1783.95,-195.31 1783.95,622.3 0,220.01 -96.53,376.42 -199.48,505.83 -363.14,456.63 -1183.79,323.94 -1874.84,323.94zm-2198.83 3111.5l1576.53 0c33.71,-405.33 297.72,-1290.37 331.88,-1700.99 441.04,0 1156.35,40.87 1559.27,-17.2 845.45,-121.96 1509.01,-328.3 2037.67,-1198.34 180.86,-297.63 384.26,-786.21 322.96,-1249.01 -81.83,-618.04 -161.21,-765.19 -469.77,-1151.5 -233.68,-292.53 -650.18,-509.6 -1009.64,-608.34 -609.61,-167.38 -2328.04,-90.21 -3145.75,-90.21 -226.43,971.92 -416.8,2021.55 -611.96,2997.43 -70.12,350.55 -591.19,2741.36 -591.19,3018.16z"/>
   <path class="fil0" d="M9486.38 6188.33c0,393.32 -823.55,1422.07 -1037.14,1742.44 -185.36,278.02 -364.16,568.4 -569.18,841.38 -110.2,146.75 -180.66,264.64 -285.52,419.78 -54.15,80.21 -333.2,398.27 -58.02,398.27l2572.16 0c145.19,0 467.9,-598.19 605.69,-804.87 278.91,-418.32 1516.16,-2257.83 1717.59,-2638.51l-141.61 -190.31c-53.21,-79.97 -79.08,-120.05 -132.2,-199.68 -105.49,-158.32 -181.93,-262.39 -278.76,-426.49l-1098.63 -1681c-115.34,-172.87 -505.58,-705.5 -547.62,-862.94l-2821.08 0c14.65,176.06 397.93,679.78 514.45,854.56l1103.68 1634.5c164.39,231.52 456.19,538.85 456.19,912.87z"/>
   <path class="fil0" d="M15958.3 4487.34l1742.44 0c-68.41,142.64 -198.11,928.4 -238.53,1130.53 -109.13,545.71 -674.15,3108.61 -674.15,3433.04l1576.48 0c0,-200.9 159.25,-900.08 210.9,-1158.17l587.7 -2897.17c135.49,-679.34 -227.31,-508.23 1856.56,-508.23 0,-362.55 248.92,-1085.06 248.92,-1452.02l-5019.9 0 -290.42 1452.02z"/>
   <path class="fil0" d="M51222.03 7391.42l1203.1 0 1117.4 -4451.06c31.65,-129.36 66,-195.46 -80.22,-195.46 -1772.96,0 -1499.94,-133.18 -1588.58,485.79l-556.69 3550.49c-31.7,217.31 -79.62,425.12 -95.01,610.24z"/>
   <path class="fil0" d="M30271.25 12286.87c-585.4,0 -420.76,-559.34 -315.46,-688.84 141.36,-173.81 771.8,-319.44 771.8,273.95 0,229.52 -239.22,414.89 -456.34,414.89zm-248.92 -1161.65l0 -124.46 -497.84 0c-183.9,789.3 -314.88,1620.88 -497.84,2406.25l539.29 0c3.04,-135.05 124.36,-742.99 165.97,-829.77 302.67,202.71 689.77,272.69 1020.32,66.15 1069.28,-667.97 284.89,-2197.7 -729.9,-1518.17z"/>
   <path class="fil0" d="M23550.41 3118.28c343.05,0 699.77,10.24 1040.61,3.48 287.48,-5.69 314.92,-119.56 589.57,-447.57l744.31 -832.21c137.25,-136.66 146.51,-125.1 239.17,-300.18l-1783.94 0c-36.12,154.94 -511.86,947.32 -622.55,1161.4 -66.35,128.33 -176.01,281.16 -207.17,415.08z"/>
   <path class="fil0" d="M23425.95 11664.57l-788.26 0c87.02,-130 181.2,-241.67 390.72,-264.46 212.51,-23.12 347.17,48.22 397.54,264.46zm-1369.06 331.87c0,906.11 1158.55,859.56 1390.96,685.76 96.68,-72.32 140.68,-327.52 144.01,-478.34 -148.42,34.6 -982.79,371.03 -995.68,-207.42l1286.11 0c333.1,-1429.77 -1825.4,-1344.02 -1825.4,0z"/>
   <path class="fil0" d="M37075.05 11415.65l207.46 0c133.14,0 196.3,115.34 207.42,248.92l-746.76 0c40.08,-150.14 144.75,-248.92 331.88,-248.92zm-82.96 1369.06c522.88,0 663.8,-117.11 663.8,-580.85 -240.29,115.3 -953.78,296.3 -995.68,-207.42 235.06,0 470.16,-0.14 705.26,0 604.02,0.45 622.3,99.03 622.3,-331.87 0,-943.99 -1643.51,-1009.94 -1847.1,189.14 -83.35,491.17 263.13,931 851.42,931z"/>
   <path class="fil0" d="M26205.52 11830.48c-170.17,254.16 -735.39,714.81 -788.21,912.72 122.99,0 255.88,5.88 376.81,3.48 201.54,-4.01 167.73,10.29 280.08,-93.34 125.44,-115.64 270.14,-334.23 380.24,-407.98 133.67,97.91 209.04,344.03 290.43,497.84l539.34 0 -456.39 -912.72c105.4,-70.56 664.44,-706.77 746.76,-829.72l-622.3 0c-90.75,171.55 -217.12,310.27 -373.38,414.89l-208.54 -414.3 -538.22 -0.59c64.98,278.77 308.46,550.96 373.38,829.72z"/>
   <path class="fil0" d="M50848.65 8511.56c0,458.99 334.97,705.26 663.81,705.26 1002.78,0 1232.2,-1493.52 124.46,-1493.52 -409.89,0 -788.27,378.38 -788.27,788.26z"/>
   <path class="fil0" d="M39937.63 11540.11c0,46.01 64.24,218.78 82.07,249.8 138.77,241.18 564.58,220.7 706.19,413.95 -240.84,328.74 -840.06,-63.55 -912.72,-82.96 -44.94,93.64 -82.96,311.06 -82.96,456.34 688.45,364.32 1493.52,262.64 1493.52,-456.34 0,-454.03 -615.69,-386.8 -788.26,-622.3 238.58,-159.74 511.31,-83.1 746.76,41.51 3.48,-154.89 51.94,-323.01 83,-456.39 -315.12,-166.7 -845.49,-201.54 -1112.44,49.25 -88.6,83.25 -215.16,255.53 -215.16,407.14z"/>
   <path class="fil0" d="M43256.59 11540.11c0,46.01 64.24,218.78 82.08,249.8 138.72,241.18 564.58,220.7 706.14,413.95 -240.84,328.74 -840.06,-63.55 -912.68,-82.96 -44.93,93.64 -83,311.06 -83,456.34 1246.41,659.54 1957.45,-472.26 1177.22,-845.3 -352.85,-168.7 -414.93,-61.35 -471.92,-274.84 300.03,-69.87 457.27,-70.17 746.76,83.01 3.43,-154.89 51.89,-323.01 82.96,-456.39 -315.12,-166.7 -845.5,-201.54 -1112.4,49.25 -88.59,83.25 -215.16,255.53 -215.16,407.14z"/>
   <path class="fil0" d="M33880.59 11166.73l46.55 -164.35 -544.39 -1.62c-38.56,463.2 -331.93,1378.82 -331.93,1742.44 779.4,0 436.1,59.64 689.33,-845.69 109.76,-392.39 252.11,-440.41 721.24,-440.41 30.03,-128.82 79.72,-350.54 82.95,-497.84 -478.83,0 -336.77,-11.51 -663.75,207.47z"/>
  </g>
 </g>
</svg>
