<?xml version="1.0" encoding="UTF-8"?>
<!DOCTYPE svg PUBLIC "-//W3C//DTD SVG 1.1//EN" "http://www.w3.org/Graphics/SVG/1.1/DTD/svg11.dtd">
<!-- Creator: CorelDRAW 2020 (64 Bit Versão de avaliação) -->
<svg xmlns="http://www.w3.org/2000/svg" xml:space="preserve" width="200mm" height="135mm" version="1.1" style="shape-rendering:geometricPrecision; text-rendering:geometricPrecision; image-rendering:optimizeQuality; fill-rule:evenodd; clip-rule:evenodd"
viewBox="0 0 20000 13500"
 xmlns:xlink="http://www.w3.org/1999/xlink"
 xmlns:xodm="http://www.corel.com/coreldraw/odm/2003">
 <defs>
  <style type="text/css">
   <![CDATA[
    .fil2 {fill:#00456A}
    .fil0 {fill:#A2CB1A}
    .fil1 {fill:white}
   ]]>
  </style>
 </defs>
 <g id="Camada_x0020_1">
  <metadata id="CorelCorpID_0Corel-Layer"/>
  <g id="_2882960978032">
   <path class="fil0" d="M10157.93 1208.94c94.47,-17.56 375.04,-3.59 490.07,-3.59 148.47,0 908.47,-9.16 985.6,2.49 79.02,11.93 118.13,53.45 147.87,98.54l882.31 1344.39c66.76,103.4 131.65,206 197.95,301.57 95.83,138.13 126.04,191.42 22.23,351.5l-982.25 1498.79c-56.53,87.44 -139.32,237.46 -222.69,267.94 -59.58,21.79 -1269,20.71 -1480.02,14.29 -134.43,-4.09 -252.24,-115.61 -209.78,-264.66 16.23,-56.96 63.51,-113.59 94.35,-159.27l696.96 -1030.32c69.36,-101.34 131.74,-195.46 201.77,-297.75 91.54,-133.71 125.07,-193.15 18.17,-348.26 -135.01,-195.89 -265.7,-393.91 -400.1,-590.41l-502.14 -742.61c-27,-39.44 -77.66,-104 -97.43,-147.93 -65.67,-145.95 33.74,-271.76 157.13,-294.71zm-3074.4 4395.52c21.54,-17.33 100.74,-139.94 126.26,-176.69 41.21,-59.37 83.45,-119.05 123.89,-180.9 225.59,-345 505.27,-736.87 742.58,-1086.52 164.79,-242.79 326.99,-478.64 496.63,-722.27 103.69,-148.91 218.64,-258.92 114.7,-418.15 -81.15,-124.31 -163.51,-241.92 -246.49,-362.97l-738.34 -1090.47c-130.49,-189.5 -13.02,-344.14 127.98,-359.51l1217.06 -1.63c288.52,0 312.8,-30.82 441.27,166.29l965.53 1473.15c41.25,63.77 83.77,120.61 120.91,183.8 47.23,80.36 47.89,161.52 -4.13,240.55 -643.75,977.83 -1298.94,1963.53 -1934.31,2942.46 -80.19,123.55 -158.7,248.42 -242.31,367.04 -134.72,191.13 -118.9,166.73 -439.17,166.73 -103.19,0 -1136.37,-6.73 -1210.73,3.24 -32.31,63.53 -186.84,217.06 -61.55,358.46 101.76,114.85 237.6,82.38 442.55,82.38 349.96,0 699.91,0 1049.87,0 208.27,0 248.6,15.08 362.44,-162.49 35.95,-56.08 67.59,-105.79 103.22,-159.24 57.92,-86.87 508.86,-763.2 516.47,-795.87 942.63,0 1885.25,0 2827.87,0 432.15,0 700.74,42.38 1048.19,-187.94 35.1,-23.27 70.93,-48.42 101.27,-76.53 345.81,-320.38 357.61,-612.48 357.61,-1064.8l0 -3530.6c0.04,-414.91 -138.52,-739.45 -463.86,-958.54 -369.82,-249.05 -789.99,-184.46 -1229.47,-184.46l-3539.08 0c-264.35,0 -449.52,-7.74 -650.98,60.22 -207.79,70.1 -377.75,200.61 -506.64,373.89 -79.24,106.52 -137.32,230.37 -170.06,363.34 -47.71,193.8 -35.45,437.3 -35.45,675.75l0 2827.87c0,402.02 -54.13,779.95 118.52,1126.08l56.21 95.85c11.96,14.52 4.36,5.45 11.54,12.48z"/>
   <path class="fil1" d="M7083.53 5604.46l-402.83 589.5c-49.13,67.48 -173.62,238.97 -186.97,313.17 -20.05,111.38 67.44,246.35 251.13,241.48 74.36,-9.97 1107.54,-3.24 1210.73,-3.24 320.27,0 304.45,24.4 439.17,-166.73 83.61,-118.62 162.12,-243.49 242.31,-367.04 635.37,-978.93 1290.56,-1964.63 1934.31,-2942.46 52.02,-79.03 51.36,-160.19 4.13,-240.55 -37.14,-63.19 -79.66,-120.03 -120.91,-183.8l-965.53 -1473.15c-128.47,-197.11 -152.75,-166.29 -441.27,-166.29l-1217.06 1.63c-141,15.37 -258.47,170.01 -127.98,359.51l738.34 1090.47c82.98,121.05 165.34,238.66 246.49,362.97 103.94,159.23 -11.01,269.24 -114.7,418.15 -169.64,243.63 -331.84,479.48 -496.63,722.27 -237.31,349.65 -516.99,741.52 -742.58,1086.52 -40.44,61.85 -82.68,121.53 -123.89,180.9 -25.52,36.75 -104.72,159.36 -126.26,176.69z"/>
   <path class="fil2" d="M10461.73 10533.79c-110.07,0 -213.67,-9.48 -309.84,-45.76 -40.07,-15.11 -70.4,-28.78 -103.5,-48.9 -40,-24.32 -53.44,-34.13 -89.89,-62.51 -100.35,-78.1 -199.5,-243.56 -199.5,-418.56 0,-281.56 56.22,-361.28 206.76,-555.24 115.94,-149.37 363.83,-266.03 622.97,-266.03 266.74,0 508.38,119.2 615.46,332.81 143.38,286.03 28.53,625.68 -173.04,829.28 -120.67,121.89 -328.95,234.91 -569.42,234.91zm-1540.93 -609.6c0,287.25 10.37,442.77 135.45,694.27 24.31,48.86 53.71,100.17 85.78,142.83 15.88,21.12 30.22,42.28 47.8,62.27 137.9,156.85 258.86,263.7 459.19,353.6 382.25,171.55 1032.49,155.93 1308.71,-198.17 15.03,-19.27 38.74,-52.78 54.33,-64.2l-67.73 321.73 812.8 0 554.03 -2731.35c7.7,-35.61 25.45,-71.12 -12.16,-71.12l-770.47 0c-32.26,0 -31.4,32.87 -37.71,63.9l-55.42 266.31c-31.1,-35.78 -26.69,-77.75 -136.58,-159.76 -170.31,-127.1 -449.4,-212.78 -676.22,-212.78 -334.57,0 -483.75,10.13 -787.47,160.81 -292.89,145.3 -513.38,374.54 -690.87,638.39 -122.47,182.05 -223.46,500.9 -223.46,733.27z"/>
   <path class="fil0" d="M4323.39 10533.79c-296.45,0 -533.51,-92.2 -660.65,-338.41 -91.89,-177.93 -70.06,-427.75 17.08,-601.49 49.13,-97.94 97.34,-151.94 171.55,-226.39 281.01,-281.93 774.92,-306.65 1054.31,-76.4 461.03,379.94 100.64,1242.69 -582.29,1242.69zm-1557.87 -558.8c0,346.63 65.05,574.01 258.72,833.48 423.59,567.5 1387.88,637.65 1779.26,171.56l53.29 -65.24 -67.73 321.73 812.8 0 426.86 -2096.2c13.34,-66.73 140.4,-657.88 140.4,-706.27l-795.86 0c-33.89,0 -41.5,92.12 -55.7,155.98l-26.22 126.17c-9.86,42.24 9.33,18.33 -19.68,39.59 -25.8,-110.72 -222.46,-218.76 -321.87,-262.33 -222.31,-97.46 -414.36,-101.74 -660.27,-101.74 -273.32,0 -534.25,110.53 -733.03,232.17l-323.21 260.99c-284.56,282.93 -467.76,672.34 -467.76,1090.11z"/>
   <path class="fil2" d="M16913.34 10559.19c-619.27,0 -823.97,-553.42 -618.26,-973.86 82.65,-168.92 238.84,-315.24 409.31,-395.03 241.62,-113.08 553.69,-89.65 771.33,61.44 137.13,95.19 250.42,292.87 250.42,469.25 0,286.48 -61.14,419.23 -256.1,615.97 -120.32,121.41 -318.08,222.23 -556.7,222.23zm-1524 -626.53c0,257.86 19.6,435.86 129.7,657.69 85.76,172.79 224.12,332.35 375.79,445.48l320.53 179c377.26,151.76 941.86,141.3 1307.83,-20.39 46.21,-20.41 83.41,-37.95 126.76,-59.51 346.46,-172.29 662.78,-523.42 803.12,-873.28 36.79,-91.7 66.75,-189.47 84.78,-296.21 36.95,-218.62 28.62,-466.27 -29.66,-662.43 -89.36,-300.72 -276.86,-528.83 -519.52,-699.69l-177.83 -101.56c-401.25,-202.6 -1029.46,-189.64 -1428.1,11.3 -191.35,96.46 -321.47,176.15 -474.82,329.51 -34.54,34.54 -62.8,62.73 -97.49,97.24l-178.32 228.08c-141.22,229.88 -242.77,476.68 -242.77,764.77z"/>
   <path class="fil2" d="M12256.67 9890.32c0,322.02 8.57,475.1 175.05,756.29 87.95,148.54 231.76,282.88 370.37,383.16 469.66,339.77 1208.96,366.7 1799.74,105.05 98.28,-43.52 326.02,-191.4 392.3,-259.63 26.87,-27.66 22.65,-29.38 30.67,-70.94l187.44 -947.09c14.16,-70.81 58.56,-266.14 58.56,-322.44l-1430.87 0c-35.44,0 -31.03,67.68 -45.85,140.42l-89.61 494.58 795.87 0c-3.12,37.44 -19.52,88.46 -28.98,131.9l-31.55 137.77c-17.76,56.68 -147.59,106.89 -201.83,128.38 -389.79,154.39 -988.4,61.23 -1162.65,-336.17 -162.22,-369.96 -19.24,-739.18 289.3,-985.91 21.64,-17.31 39.2,-30.01 63.72,-46.35 329.36,-219.54 810.57,-229.52 1133.76,11.14 48.74,36.3 82.61,84.53 124.49,112.58 27.29,-14.45 45.46,-28.79 69.69,-48.85l472.18 -366.02c-13.78,-51.62 -104.85,-125.55 -150.33,-171.4 -251.17,-253.24 -674.77,-370.47 -1035,-370.47 -362.73,0 -693.48,94.47 -973.29,262.85 -38.92,23.42 -83.3,53.12 -121.39,81.82 -291.78,219.87 -508.65,471.33 -627.35,828.91 -29.29,88.24 -64.44,239.53 -64.44,350.42z"/>
   <path class="fil2" d="M7024.26 9627.86l152.4 -753.54 516.47 0c204.31,0 406.4,105.17 406.4,304.8 0,177.97 -76.38,300.55 -217.28,383.86 -42.93,25.38 -82.72,41.4 -131.33,54.94 -93.03,25.92 -584.23,9.94 -726.66,9.94zm-1143 1608.66l702.73 0.01c143.57,0.1 116.09,25.8 140.41,-96.67l155.93 -783.87 968.96 -21.64c368.45,-65.49 630.58,-243.44 852.69,-544.31 155.35,-210.43 201.88,-415.28 201.88,-704.05 0,-157.21 -52.61,-293.5 -107.12,-400.88 -62.92,-123.98 -186.1,-261.96 -297.56,-337.44 -209.44,-141.85 -409.19,-209.95 -687.52,-209.95l-1303.87 0c-1.09,49.2 -25.37,139.57 -35.98,192.62l-590.55 2906.18z"/>
   <path class="fil0" d="M10172.14 1395.23c-7.11,42.73 31.49,77.76 53.68,111.77l214.37 319.35c100.01,146.1 190.33,281.11 291.21,428.22l430.43 636.47c128.31,205.05 123.28,328.71 -15.24,529.65 -47.54,68.96 -94.63,141.52 -143.29,212.42l-793.39 1170.76c-21.33,31.93 -76.82,94.46 6.29,94.46l1363.13 0c55.01,0 72.12,-53.38 93.93,-87.06l797.83 -1217.52c32.03,-49.47 290.36,-429.96 289.31,-451.37 -24.16,-59.76 -105.43,-164.56 -143.97,-224.12l-978.5 -1494.11c-19.09,-29.07 -19.79,-32.39 -58.6,-32.39 -254,0 -1231.32,-10.71 -1407.19,3.47z"/>
   <path class="fil0" d="M471.05 8874.32l889 0c-3.62,43.49 -19.39,101.18 -28.93,148.87l-331.61 1624.19c-39.6,198.04 -77.4,397.44 -122.06,589.14l821.27 0c0,-45.1 16.62,-104.25 24.69,-144.63 61,-305 143.4,-750.76 209.05,-1035.56 63.08,-273.59 123.16,-607.41 178.95,-887.85 19.47,-97.85 39.31,-199.14 61.44,-294.16l897.47 0 143.93 -736.6 -2599.27 0c0,60.55 -142.39,667.69 -143.93,736.6z"/>
   <path class="fil1" d="M10440.19 1826.35l-214.37 -319.35c-22.19,-34.01 -60.79,-69.04 -53.68,-111.77 175.87,-14.18 1153.19,-3.47 1407.19,-3.47 38.81,0 39.51,3.32 58.6,32.39l978.5 1494.11c38.54,59.56 119.81,164.36 143.97,224.12 1.05,21.41 -257.28,401.9 -289.31,451.37l-797.83 1217.52c-21.81,33.68 -38.92,87.06 -93.93,87.06l-1363.13 0c-83.11,0 -27.62,-62.53 -6.29,-94.46l793.39 -1170.76c48.66,-70.9 95.75,-143.46 143.29,-212.42 138.52,-200.94 143.55,-324.6 15.24,-529.65l-430.43 -636.47c-100.88,-147.11 -191.2,-282.12 -291.21,-428.22zm-282.26 -617.41c-123.39,22.95 -222.8,148.76 -157.13,294.71 19.77,43.93 70.43,108.49 97.43,147.93l502.14 742.61c134.4,196.5 265.09,394.52 400.1,590.41 106.9,155.11 73.37,214.55 -18.17,348.26 -70.03,102.29 -132.41,196.41 -201.77,297.75l-696.96 1030.32c-30.84,45.68 -78.12,102.31 -94.35,159.27 -42.46,149.05 75.35,260.57 209.78,264.66 211.02,6.42 1420.44,7.5 1480.02,-14.29 83.37,-30.48 166.16,-180.5 222.69,-267.94l982.25 -1498.79c103.81,-160.08 73.6,-213.37 -22.23,-351.5 -66.3,-95.57 -131.19,-198.17 -197.95,-301.57l-882.31 -1344.39c-29.74,-45.09 -68.85,-86.61 -147.87,-98.54 -77.13,-11.65 -837.13,-2.49 -985.6,-2.49 -115.03,0 -395.6,-13.97 -490.07,3.59z"/>
   <path class="fil2" d="M18708.27 10372.92l609.61 0c16.94,-35.3 30.53,-105.28 40.62,-145.64l560.51 -2233.49 -838.2 0 -92.68 593.12c-63.71,472.77 -160.84,1002.75 -231.51,1487.22 -6.12,41.98 -15.04,99.94 -22.95,146.39 -8.63,50.75 -14.21,104.38 -25.4,152.4z"/>
   <path class="fil2" d="M7845.53 12921.39c-102.51,0 -203.2,-76.13 -203.2,-177.8 0,-358.63 465.66,-323.01 465.66,-93.13 0,78.45 -6.75,143.97 -83.07,204.79 -38.73,30.86 -112.67,66.14 -179.39,66.14zm-110.07 -601.13l9.91 -67.49 -263.91 -0.24c-58.78,252.31 -136.34,660.51 -189.79,927.8l-64.21 308.33 270.93 0c0,-48.4 47.59,-250.62 62.8,-326.67 7.46,-37.29 19.04,-79.64 21.87,-113.6 98.85,113.73 268.2,132.01 391.55,103.68 46.1,-10.58 94.34,-26.17 130.05,-47.75 365.02,-220.58 348.04,-679.9 62.96,-826.75 -90.9,-46.82 -250.6,-61.91 -347.68,-16.77 -39.2,18.23 -53.72,38.86 -84.48,59.46z"/>
   <path class="fil0" d="M4382.66 8180.05c180.6,0 361.28,-0.52 541.87,0.02 55.56,0.16 86.15,10.11 117.19,-18.28l668.23 -754.18c15.93,-17.89 22.57,-20.53 35.84,-40.36l-922.87 0 -138.17 251.29c-10.8,19.33 -14.86,30.96 -25.48,50.73l-223.12 403.41c-20.37,36.68 -43.46,64.32 -53.49,107.37z"/>
   <path class="fil2" d="M4128.66 12455.73l33.86 0c89.91,0 158.92,48.08 160.87,135.46l-406.4 0c37.77,-71.38 103.82,-135.46 211.67,-135.46zm-508.01 304.8c0,386.51 391.19,473.44 679.78,374.97 79.55,-27.15 62.39,-27.67 80.48,-105.79 10.6,-45.77 31.94,-115 35.61,-159.12 -88.16,20.54 -89.4,67.74 -330.2,67.74 -110.06,0 -194.73,-52.65 -194.73,-169.34l668.87 0c7.4,-89.02 68,-224.67 -54.12,-386.14 -241.25,-318.98 -885.69,-128.52 -885.69,377.68z"/>
   <path class="fil2" d="M11410 12455.73l33.87 0c89.9,0 158.92,48.08 160.86,135.46l-406.4 0c37.77,-71.38 103.82,-135.46 211.67,-135.46zm-508 304.8c0,391.57 411.65,474.68 679.71,374.91 76.61,-28.52 62.86,-27.99 80.63,-105.64 10.37,-45.35 32.13,-118.46 35.53,-159.21 -26.79,6.24 -37.58,15.47 -60.4,24.27 -138.57,53.45 -464.54,104.82 -464.54,-125.87l668.87 0c7.93,-95.35 65.55,-227.92 -54.12,-386.14 -240.05,-317.39 -885.68,-130.95 -885.68,377.68z"/>
   <path class="fil2" d="M5347.86 13149.99c67.73,0 135.48,-0.19 203.21,0.01 141.53,0.42 92.55,2.6 247.81,-158.59 31.84,-33.06 61.56,-91.54 107.78,-103.88 46.4,87.68 89.16,174.96 135.46,262.46l279.41 0c-8.87,-38.06 -213.79,-413.19 -237.07,-457.2 16.12,-18.55 30.75,-33.51 48.76,-52.84 40.49,-43.45 325.73,-363.05 332.24,-387.42l-304.8 0c-24.92,47.09 -116.49,130.89 -148.83,172.9 -20.25,26.31 -28.34,38.26 -54.37,55.7l-113.23 -227.03 -284.71 -1.57 192.37 375.35c34.84,66.25 11.81,48.45 -84.8,164.02 -15.18,18.16 -29.7,29.98 -46.35,46.78l-93.07 101.66c-26.98,29.15 -173.81,187.15 -179.81,209.65z"/>
   <path class="fil2" d="M18835.27 11321.19c182.23,0 325.31,-66.13 409.26,-217.27 80.91,-145.67 68.53,-307.29 -27.96,-434.96 -159.84,-211.51 -625.27,-130.06 -698.2,225.26 -51.09,248.88 129.31,426.97 316.9,426.97z"/>
   <path class="fil2" d="M14593.47 12523.46c0,61.52 11.59,109.92 44.57,150.16 36.4,44.41 57.19,53.08 107.79,78.48 98.09,49.24 203.63,55.86 245.57,118.49 -28.96,124.34 -322.11,63.84 -434.43,-23.35 -62.45,-48.48 -42.89,-15.71 -58.72,63.59 -5.74,28.73 -20.92,123.39 -31.78,146.03 128.11,85.78 261.79,134.94 472.01,107.94 315.17,-40.48 366.41,-318.66 274.63,-439.72 -111.14,-146.58 -365.64,-146.52 -365.64,-201.62 0,-103.06 208.09,-62.49 259.19,-47.52 64.48,18.89 77.01,39.05 113.34,47.52 12.17,-52.2 42.34,-174.43 42.34,-228.6 -246.29,-164.92 -668.87,-44.39 -668.87,228.6z"/>
   <path class="fil2" d="M12874.73 12531.93c0,280.77 397.94,246.26 397.94,347.13 0,93.41 -254.81,58.86 -342.45,20.71 -57.17,-24.89 -84.24,-54.87 -131.69,-79.98 -6.61,79.49 -42.33,159.51 -42.33,245.54 39.03,10.42 79.83,61.58 206.65,89.68 540.92,119.85 737.19,-352.59 425.71,-518.84 -84.28,-44.98 -254.2,-71.52 -259.83,-121.18 11.5,-43.06 56.89,-59.26 110.07,-59.26 74.18,0 142.04,11.68 205.87,39.66 27.65,12.13 30.81,21.18 56.6,28.07 9.01,-18.78 42.33,-188.43 42.33,-220.13 0,-23.06 -87.43,-54.77 -115.39,-62.41 -258.08,-70.57 -553.48,51.27 -553.48,291.01z"/>
   <path class="fil2" d="M9733.6 12345.66c2.7,-32.45 14.23,-60.69 16.93,-93.13l-270.93 0 -89.58 443.82c-16.48,83.33 -88.22,395.19 -88.22,453.64l270.93 0c0,-60.19 26.75,-145.7 38.82,-206.71 14.76,-74.6 25.7,-137.85 42.35,-211.65 19.83,-87.84 80.11,-187.43 149.9,-222.64 68.04,-34.33 110.29,-27.86 183.8,-27.86 56.16,0 36.1,51.29 65.64,-95.22 8.95,-44.35 24.13,-109.99 27.49,-150.32 -104.61,-10.42 -142.02,-22.16 -242.97,27.97 -60.16,29.88 -59.67,52.3 -104.16,82.1z"/>
  </g>
 </g>
</svg>
