<?xml version="1.0" encoding="UTF-8"?>
<!DOCTYPE svg PUBLIC "-//W3C//DTD SVG 1.1//EN" "http://www.w3.org/Graphics/SVG/1.1/DTD/svg11.dtd">
<!-- Creator: CorelDRAW 2020 (64 Bit Versão de avaliação) -->
<svg xmlns="http://www.w3.org/2000/svg" xml:space="preserve" width="390.854mm" height="369.239mm" version="1.1" style="shape-rendering:geometricPrecision; text-rendering:geometricPrecision; image-rendering:optimizeQuality; fill-rule:evenodd; clip-rule:evenodd"
viewBox="0 0 39085.4 36923.88"
 xmlns:xlink="http://www.w3.org/1999/xlink"
 xmlns:xodm="http://www.corel.com/coreldraw/odm/2003">
 <defs>
  <style type="text/css">
   <![CDATA[
    .fil0 {fill:#A2CB1A}
    .fil1 {fill:white}
   ]]>
  </style>
 </defs>
 <g id="Camada_x0020_1">
  <metadata id="CorelCorpID_0Corel-Layer"/>
  <g id="_2702399455504">
   <path class="fil0" d="M20064.99 6375.93c472.35,-87.8 1875.2,-17.95 2450.35,-17.95 742.35,0 4542.35,-45.8 4928,12.45 395.1,59.65 590.65,267.25 739.35,492.7l4411.55 6721.95c333.8,517 658.25,1030 989.75,1507.85 479.15,690.65 630.2,957.1 111.15,1757.5l-4911.25 7493.95c-282.65,437.2 -696.6,1187.3 -1113.45,1339.7 -297.9,108.95 -6345,103.55 -7400.1,71.45 -672.15,-20.45 -1261.2,-578.05 -1048.9,-1323.3 81.15,-284.8 317.55,-567.95 471.75,-796.35l3484.8 -5151.6c346.8,-506.7 658.7,-977.3 1008.85,-1488.75 457.7,-668.55 625.35,-965.75 90.85,-1741.3 -675.05,-979.45 -1328.5,-1969.55 -2000.5,-2952.05l-2510.7 -3713.05c-135,-197.2 -388.3,-520 -487.15,-739.65 -328.35,-729.75 168.7,-1358.8 785.65,-1473.55zm-15372 21977.6c107.7,-86.65 503.7,-699.7 631.3,-883.45 206.05,-296.85 417.25,-595.25 619.45,-904.5 1127.95,-1725 2526.35,-3684.35 3712.9,-5432.6 823.95,-1213.95 1634.95,-2393.2 2483.15,-3611.35 518.45,-744.55 1093.2,-1294.6 573.5,-2090.75 -405.75,-621.55 -817.55,-1209.6 -1232.45,-1814.85l-3691.7 -5452.35c-652.45,-947.5 -65.1,-1720.7 639.9,-1797.55l6085.3 -8.15c1442.6,0 1564,-154.1 2206.35,831.45l4827.65 7365.75c206.25,318.85 418.85,603.05 604.55,919 236.15,401.8 239.45,807.6 -20.65,1202.75 -3218.75,4889.15 -6494.7,9817.65 -9671.55,14712.3 -400.95,617.75 -793.5,1242.1 -1211.55,1835.2 -673.6,955.65 -594.5,833.65 -2195.85,833.65 -515.95,0 -5681.85,-33.65 -6053.65,16.2 -161.55,317.65 -934.2,1085.3 -307.75,1792.3 508.8,574.25 1188,411.9 2212.75,411.9 1749.8,0 3499.55,0 5249.35,0 1041.35,0 1243,75.4 1812.2,-812.45 179.75,-280.4 337.95,-528.95 516.1,-796.2 289.6,-434.35 2544.3,-3816 2582.35,-3979.35 4713.15,0 9426.25,0 14139.35,0 2160.75,0 3503.7,211.9 5240.95,-939.7 175.5,-116.35 354.65,-242.1 506.35,-382.65 1729.05,-1601.9 1788.05,-3062.4 1788.05,-5324l0 -17653c0.2,-2074.55 -692.6,-3697.25 -2319.3,-4792.7 -1849.1,-1245.25 -3949.95,-922.3 -6147.35,-922.3l-17695.4 0c-1321.75,0 -2247.6,-38.7 -3254.9,301.1 -1038.95,350.5 -1888.75,1003.05 -2533.2,1869.45 -396.2,532.6 -686.6,1151.85 -850.3,1816.7 -238.55,969 -177.25,2186.5 -177.25,3378.75l0 14139.35c0,2010.1 -270.65,3899.75 592.6,5630.4l281.05 479.25c59.8,72.6 21.8,27.25 57.7,62.4z"/>
   <path class="fil1" d="M4692.99 28353.53l-2014.15 2947.5c-245.65,337.4 -868.1,1194.85 -934.85,1565.85 -100.25,556.9 337.2,1231.75 1255.65,1207.4 371.8,-49.85 5537.7,-16.2 6053.65,-16.2 1601.35,0 1522.25,122 2195.85,-833.65 418.05,-593.1 810.6,-1217.45 1211.55,-1835.2 3176.85,-4894.65 6452.8,-9823.15 9671.55,-14712.3 260.1,-395.15 256.8,-800.95 20.65,-1202.75 -185.7,-315.95 -398.3,-600.15 -604.55,-919l-4827.65 -7365.75c-642.35,-985.55 -763.75,-831.45 -2206.35,-831.45l-6085.3 8.15c-705,76.85 -1292.35,850.05 -639.9,1797.55l3691.7 5452.35c414.9,605.25 826.7,1193.3 1232.45,1814.85 519.7,796.15 -55.05,1346.2 -573.5,2090.75 -848.2,1218.15 -1659.2,2397.4 -2483.15,3611.35 -1186.55,1748.25 -2584.95,3707.6 -3712.9,5432.6 -202.2,309.25 -413.4,607.65 -619.45,904.5 -127.6,183.75 -523.6,796.8 -631.3,883.45z"/>
   <path class="fil0" d="M20136.04 7307.38c-35.55,213.65 157.45,388.8 268.4,558.85l1071.85 1596.75c500.05,730.5 951.65,1405.55 1456.05,2141.1l2152.15 3182.35c641.55,1025.25 616.4,1643.55 -76.2,2648.25 -237.7,344.8 -473.15,707.6 -716.45,1062.1l-3966.95 5853.8c-106.65,159.65 -384.1,472.3 31.45,472.3l6815.65 0c275.05,0 360.6,-266.9 469.65,-435.3l3989.15 -6087.6c160.15,-247.35 1451.8,-2149.8 1446.55,-2256.85 -120.8,-298.8 -527.15,-822.8 -719.85,-1120.6l-4892.5 -7470.55c-95.45,-145.35 -98.95,-161.95 -293,-161.95 -1270,0 -6156.6,-53.55 -7035.95,17.35z"/>
   <path class="fil1" d="M21476.29 9462.98l-1071.85 -1596.75c-110.95,-170.05 -303.95,-345.2 -268.4,-558.85 879.35,-70.9 5765.95,-17.35 7035.95,-17.35 194.05,0 197.55,16.6 293,161.95l4892.5 7470.55c192.7,297.8 599.05,821.8 719.85,1120.6 5.25,107.05 -1286.4,2009.5 -1446.55,2256.85l-3989.15 6087.6c-109.05,168.4 -194.6,435.3 -469.65,435.3l-6815.65 0c-415.55,0 -138.1,-312.65 -31.45,-472.3l3966.95 -5853.8c243.3,-354.5 478.75,-717.3 716.45,-1062.1 692.6,-1004.7 717.75,-1623 76.2,-2648.25l-2152.15 -3182.35c-504.4,-735.55 -956,-1410.6 -1456.05,-2141.1zm-1411.3 -3087.05c-616.95,114.75 -1114,743.8 -785.65,1473.55 98.85,219.65 352.15,542.45 487.15,739.65l2510.7 3713.05c672,982.5 1325.45,1972.6 2000.5,2952.05 534.5,775.55 366.85,1072.75 -90.85,1741.3 -350.15,511.45 -662.05,982.05 -1008.85,1488.75l-3484.8 5151.6c-154.2,228.4 -390.6,511.55 -471.75,796.35 -212.3,745.25 376.75,1302.85 1048.9,1323.3 1055.1,32.1 7102.2,37.5 7400.1,-71.45 416.85,-152.4 830.8,-902.5 1113.45,-1339.7l4911.25 -7493.95c519.05,-800.4 368,-1066.85 -111.15,-1757.5 -331.5,-477.85 -655.95,-990.85 -989.75,-1507.85l-4411.55 -6721.95c-148.7,-225.45 -344.25,-433.05 -739.35,-492.7 -385.65,-58.25 -4185.65,-12.45 -4928,-12.45 -575.15,0 -1978,-69.85 -2450.35,17.95z"/>
   <path class="fil0" d="M-2346.01 37562.38l171.1 -193.1c79.65,-89.45 112.85,-102.65 179.2,-201.8l-350.3 0 0 394.9z"/>
  </g>
 </g>
</svg>
